<svg xmlns="http://www.w3.org/2000/svg" width="1024" height="1024" id="codechef">
  <path d="M450.338 530.991C431.027 532.44 410.131 529.685 392.812 520.628C381.5 514.711 385.397 516.085 371.79 517.147L315.186 520.11C311.3 520.25 307.544 520.869 303.631 520.897L251.357 519.856C249.17 519.733 247.018 519.266 244.835 519.146L208.149 516.848C180.465 514.608 150.249 511.545 124.375 500.59C104.811 492.306 100.672 486.384 103.707 466.875L106.473 451.719C116.554 405.316 141.302 369.038 184.665 348.087C195.603 342.802 207.04 338.394 216.65 330.755C222.422 326.167 227.535 318.831 232.994 313.457C227.804 306.981 223.091 300.401 218.973 293.184C213.538 283.658 215.745 284.125 207.479 277.039C203.735 273.83 201.083 269.117 198.768 264.828C188.496 245.805 185.061 224.996 191.197 204.276C177.866 199.554 139.603 183.359 156.874 166.316C163.931 159.351 179.821 158.276 189.862 157.654L206.69 157.449C207.379 155.832 207.406 153.901 207.812 152.188L210.31 142.969C216.201 123.165 231.399 82.0271 255.79 78.539C279.669 77.5054 282.81 120.697 304.487 97.7195L315.143 86.5011C347.132 54.9659 371.154 124.666 377.363 146.808L379.854 157.457L395.088 157.428C407.655 157.436 427.513 158.717 432.844 171.991C438.97 187.245 407.283 198.623 397.739 202.314L399.646 212.989C401.87 231.246 394.513 261.648 381.024 273.762C373.579 280.448 375.631 280.477 371.109 289.084C366.634 297.6 361.117 305.927 355.16 313.468L366.631 324.158C390.458 303.906 421.569 294.71 452.529 297.987C546.435 307.926 589.804 422.829 528.617 491.719C508.797 514.033 480.394 529.257 450.338 530.991ZM330.632 95.4688C327.38 97.5268 324.828 100.552 322.213 103.337C298.642 128.44 287.616 128.572 265.395 103.33C257.127 93.9372 255.063 93.2823 246.942 103.993C234.94 119.822 227.392 140.187 223.13 159.442L221.866 166.159L234.428 169.02C248.032 171.298 262.287 173.005 276.094 173.518L311.187 173.531C313.654 173.443 316.126 173.031 318.594 172.865L327.418 172.37C340.038 171.182 352.317 168.869 364.628 165.906C361.16 145.993 354.273 125.796 343.569 108.562C341.575 105.351 335.271 94.8811 330.632 95.4688ZM388.724 173.295L388.294 173.287C383.499 174.009 379.381 177.365 375 179.357C363.039 184.796 349.061 186.275 336.154 187.668L318.125 189.169C316.209 189.337 314.363 189.714 312.429 189.792L276.724 189.79L260.099 188.736C244.273 187.436 223.948 186.196 209.617 178.472C207.252 177.197 204.947 175.287 202.412 174.409C196.555 172.381 176.902 174.847 171.661 176.708C178.732 181.376 186.419 184.791 194.32 187.801C215.988 195.641 245.817 200.091 269.056 201.088L326.413 200.353C351.942 198.421 377.686 193.862 401.01 182.933L413.449 176.753C405.734 173.952 396.919 172.918 388.724 173.295ZM381.695 207.969L350.61 214.8C331.923 217.577 313.107 218.52 294.238 218.499L256.444 217.232C240.578 216.028 222.696 213.733 207.376 208.968C209.581 230.927 225.588 274.7 237.594 292.178C249.325 308.551 265.802 326.752 286.66 330.164C317.588 335.222 344.206 305.158 357.745 280.3C368.229 261.05 378.524 230.169 382.105 208.281L381.695 207.969ZM434.903 314.128C395.051 317.387 359.963 342.287 346.974 380.791C342.266 394.749 341.226 410.193 342.346 424.811C346.38 477.451 396.041 518.485 448.049 514.546C475.05 512.11 499.411 500.46 517.01 479.502C572.653 413.237 522.718 311.256 434.903 314.128ZM344.127 326.172C308.75 353.508 280.52 355.408 245.435 327.19C244.572 326.496 240.826 329.855 239.927 330.54L236.745 333.069L253.746 351.151L292.611 381.098C316.99 364.476 330.624 353.84 351.654 333.158C349.223 330.826 346.817 328.192 344.127 326.172ZM225.411 345.932C212.669 354.897 198.131 359.654 184.518 366.956C151.826 384.491 134.178 412.559 124.618 447.715C122.099 456.982 118.806 467.723 119.07 477.434C129.129 490.214 169.892 495.749 184.931 497.814L283.855 503.831C284.251 503.403 284.084 502.69 284.084 502.112L283.631 401.719C281.556 388.539 260.491 378.721 250.308 370.637C241.043 363.281 233.398 354.584 225.411 345.932ZM331.163 374.943L318.46 383.688C303.21 393.644 300.877 396.11 300.92 415.159L300.938 503.861L338.202 502.621L363.529 500.954C346.53 488.47 332.266 459.809 327.894 439.868C323.31 418.961 324.261 395.165 331.163 374.943Z" transform="scale(1.6)"></path>
  <path d="M430.304 471.476C412.849 473.316 421.948 453.414 424.389 445.1L444.416 376.487C446.224 370.181 446.894 361.677 453.75 358.807 471.534 357.051 461.705 377.32 459.3 385.938L439.429 454.35C437.665 460.509 436.962 468.645 430.304 471.476zM488.304 446.423C478.302 451.753 469.902 441.087 478.235 433.161 481.277 430.267 485.253 428.088 488.689 425.673L504.241 414.602C498.6 411.029 493.444 406.424 488.066 402.452 482.549 398.378 470.547 392.861 475.469 383.95 476.822 381.5 478.857 380.396 481.465 379.724L485.218 379.738C488.985 380.235 493.55 385.429 496.519 387.638L518.089 403.869C522.757 407.68 526.421 409.673 525.428 416.399L525.223 417.619C524.615 420.091 521.037 422.46 519.098 424.016L497.882 439.55C494.676 441.817 491.622 444.322 488.304 446.423zM397.849 448.388L396.629 447.777C393.567 446.176 390.675 444.053 387.833 442.086L371.871 430.609C355.54 418.781 347.077 415.669 369.03 399.893L384.054 389.067C388.488 385.878 392.904 381.304 398.365 380.044 403.996 379.774 407.18 383.714 408.546 388.835 406.73 395.215 401.929 397.239 396.848 400.859L377.869 414.193 401.558 430.556C407.688 435.085 413.153 443.003 403.68 448.006 401.691 449.056 399.949 448.985 397.849 448.388z" transform="scale(1.6)"></path>
</svg>
